<svg xmlns="http://www.w3.org/2000/svg" viewBox="0 0 192 192" style="background: linear-gradient(135deg, #10B981 0%, #059669 100%)">
  <defs>
    <linearGradient id="grad1" x1="0%" y1="0%" x2="100%" y2="100%">
      <stop offset="0%" style="stop-color:#10B981;stop-opacity:1" />
      <stop offset="100%" style="stop-color:#059669;stop-opacity:1" />
    </linearGradient>
  </defs>
  
  <!-- Background -->
  <rect width="192" height="192" fill="url(#grad1)" rx="45"/>
  
  <!-- Outer circle -->
  <circle cx="96" cy="96" r="65" fill="none" stroke="white" stroke-width="4" opacity="0.8"/>
  
  <!-- Inner circle -->
  <circle cx="96" cy="96" r="45" fill="white" opacity="0.1"/>
  
  <!-- Brain/AI nodes -->
  <g transform="translate(96, 96)">
    <circle cx="-22" cy="-15" r="7" fill="white"/>
    <circle cx="0" cy="-26" r="7" fill="white"/>
    <circle cx="22" cy="-15" r="7" fill="white"/>
    
    <circle cx="-30" cy="8" r="6" fill="white"/>
    <circle cx="0" cy="22" r="6" fill="white"/>
    <circle cx="30" cy="8" r="6" fill="white"/>
    
    <!-- Connecting lines -->
    <line x1="-22" y1="-15" x2="0" y2="-26" stroke="white" stroke-width="1.5" opacity="0.8"/>
    <line x1="0" y1="-26" x2="22" y2="-15" stroke="white" stroke-width="1.5" opacity="0.8"/>
    <line x1="-22" y1="-15" x2="-30" y2="8" stroke="white" stroke-width="1.5" opacity="0.8"/>
    <line x1="0" y1="-26" x2="0" y2="22" stroke="white" stroke-width="1.5" opacity="0.8"/>
    <line x1="22" y1="-15" x2="30" y2="8" stroke="white" stroke-width="1.5" opacity="0.8"/>
    <line x1="-30" y1="8" x2="0" y2="22" stroke="white" stroke-width="1.5" opacity="0.8"/>
    <line x1="0" y1="22" x2="30" y2="8" stroke="white" stroke-width="1.5" opacity="0.8"/>
  </g>
</svg>